# xmcd CD database file
#
# Track frame offsets:
#	150
#	15730
#	28951
#	46569
#	71512
#	97379
#	116077
#	133852
#	150119
#	163613
#	182708
#	198051
#	219890
#	234664
#
# Disc length: 3412 seconds
#
# Revision: 0
# Processed by: cddbd v1.5.1PL0 Copyright (c) Steve Scherf et al.
# Submitted via: CDex 1.50beta9
#
DISCID=b70d520e
DTITLE=Professor Longhair - Big Easy Strut
DYEAR=2002
DGENRE=Blues
TTITLE0=Tipitana
TTITLE1=Mardi Gras in New Orleans
TTITLE2=Jambalaya (On the Bayou)
TTITLE3=How Long Has the Train Been Gone
TTITLE4=Hey Now Baby
TTITLE5=Junko Partner
TTITLE6=Tell Me Pretty Baby
TTITLE7=I'm Movin' On
TTITLE8=Stagger Lee
TTITLE9=Big Chief
TTITLE10=Big Chief
TTITLE11=Stompin' With Fess
TTITLE12=Hey Little Girl
TTITLE13=Bald Head
EXTD=YEAR: 2002
EXTT0=
EXTT1=
EXTT2=
EXTT3=
EXTT4=
EXTT5=
EXTT6=
EXTT7=
EXTT8=
EXTT9=
EXTT10=
EXTT11=
EXTT12=
EXTT13=
PLAYORDER=
